<?xml version="1.0" standalone="no"?><!DOCTYPE svg PUBLIC "-//W3C//DTD SVG 1.1//EN" "http://www.w3.org/Graphics/SVG/1.1/DTD/svg11.dtd"><svg t="1546069342589" class="icon" style="" viewBox="0 0 1024 1024" version="1.1" xmlns="http://www.w3.org/2000/svg" p-id="3398" xmlns:xlink="http://www.w3.org/1999/xlink" width="200" height="200"><defs><style type="text/css"></style></defs><path d="M603.016192 357.614592c0-86.347776 79.917056-166.573056 165.943296-166.573056s165.948416 80.224256 165.948416 166.573056v65.72032H1024v-64.4096C1024 217.537536 909.809664 102.912 768.959488 102.912c-140.845056 0-255.030272 114.620416-255.030272 256.013312v64.4096h89.086976v-65.72032z m0 0M584.25344 456.041472H112.965632c-39.52128 0-71.552 32.15872-71.552 71.82848V850.2784c0 39.66976 32.03584 71.8336 71.552 71.8336H584.25344c39.52128 0 71.55712-32.16384 71.55712-71.8336V527.868928c0-39.663616-32.04096-71.827456-71.55712-71.827456zM394.165248 771.380224h-90.976256l19.968-75.09504c-19.51744-9.4976-32.98304-29.57824-32.98304-52.81792 0-32.39936 26.1632-58.67008 58.43456-58.67008 32.27648 0 58.43968 26.2656 58.43968 58.67008 0 23.1936-13.40416 43.23328-32.86528 52.75648l19.982336 75.15648z m0 0" fill="#cdcdcd" p-id="3399"></path></svg>